<?xml version="1.0" encoding="utf-8"?>
<!-- Generator: Adobe Illustrator 26.0.0, SVG Export Plug-In . SVG Version: 6.00 Build 0)  -->
<svg version="1.0" id="Capa_1" xmlns="http://www.w3.org/2000/svg" xmlns:xlink="http://www.w3.org/1999/xlink" x="0px" y="0px"
	 width="204px" height="204px" viewBox="0 0 204 204" style="enable-background:new 0 0 204 204;" xml:space="preserve">
<style type="text/css">
	.st0{fill:#FFFFFF;stroke:#FFFFFF;stroke-width:0.75;stroke-miterlimit:10;}
	.st1{fill:url(#SVGID_1_);}
</style>
<g>
	<path class="st0" d="M65.9,88.9H83l-11,22.8h-6.7l8.6-18.1h-8V88.9z"/>
	<path class="st0" d="M89.7,88.9h12.3l-0.1,4.6h-7.5L93.8,97c2.8,0.1,4.9,0.7,6.4,2s2.2,3.1,2.2,5.3c0,2.5-0.9,4.4-2.6,5.9
		c-1.7,1.5-4.1,2.2-7,2.2c-1.6,0-3.8-0.3-6.4-1l0.8-4.4c2.1,0.7,3.7,1,4.7,1c1.3,0,2.3-0.3,3-1s1.1-1.6,1.1-2.9
		c0-1.1-0.5-1.9-1.4-2.5c-0.9-0.6-2.3-0.9-4-0.9c-0.8,0-1.8,0.1-3,0.3L89.7,88.9z"/>
	<path class="st0" d="M118.7,94.3c0,2-0.5,3.5-1.6,4.7c-1,1.1-2.5,1.7-4.4,1.7c-1.9,0-3.3-0.5-4.4-1.6c-1.1-1.1-1.6-2.6-1.6-4.5
		c0-2,0.5-3.5,1.6-4.6c1-1.1,2.5-1.6,4.4-1.6c1.9,0,3.4,0.5,4.4,1.6S118.7,92.4,118.7,94.3z M114.4,94.7c0-1.2-0.1-2.1-0.4-2.6
		c-0.2-0.5-0.7-0.8-1.3-0.8s-1.1,0.2-1.3,0.7s-0.4,1.3-0.4,2.4c0,1.2,0.1,2,0.4,2.5s0.7,0.8,1.3,0.8c0.6,0,1-0.2,1.3-0.7
		C114.3,96.5,114.4,95.7,114.4,94.7z M131.2,88.2h4L116.8,113h-4L131.2,88.2z M129.1,106.6c0-1.9,0.5-3.4,1.6-4.4
		c1.1-1.1,2.6-1.6,4.5-1.6s3.4,0.5,4.5,1.6c1.1,1.1,1.6,2.6,1.6,4.6c0,1.9-0.5,3.4-1.6,4.5s-2.6,1.6-4.4,1.6c-2,0-3.5-0.5-4.5-1.6
		C129.6,110.2,129.1,108.7,129.1,106.6z M136.9,106.9c0-1.2-0.1-2-0.4-2.6c-0.3-0.5-0.7-0.8-1.3-0.8c-0.6,0-1,0.2-1.3,0.7
		c-0.2,0.4-0.4,1.2-0.4,2.2c0,1.3,0.1,2.2,0.3,2.8c0.2,0.5,0.7,0.8,1.3,0.8c0.6,0,1-0.2,1.3-0.7C136.7,108.8,136.9,108,136.9,106.9z
		"/>
</g>
<linearGradient id="SVGID_1_" gradientUnits="userSpaceOnUse" x1="-2.441406e-04" y1="101.9998" x2="204" y2="101.9998">
	<stop  offset="0" style="stop-color:#AA367C"/>
	<stop  offset="1" style="stop-color:#4A2FBD"/>
</linearGradient>
<path class="st1" d="M102,0C45.7,0,0,45.7,0,102c0,56.3,45.7,102,102,102s102-45.7,102-102C204,45.7,158.3,0,102,0z M102,183.9
	c-45.2,0-81.9-36.7-81.9-81.9S56.8,20.1,102,20.1s81.9,36.7,81.9,81.9S147.2,183.9,102,183.9z"/>
</svg>
