<?xml version="1.0" encoding="utf-8"?>
<!-- Generator: Adobe Illustrator 26.0.0, SVG Export Plug-In . SVG Version: 6.00 Build 0)  -->
<svg version="1.0" id="Capa_1" xmlns="http://www.w3.org/2000/svg" xmlns:xlink="http://www.w3.org/1999/xlink" x="0px" y="0px"
	 viewBox="0 0 204 204" style="enable-background:new 0 0 204 204;" xml:space="preserve">
<style type="text/css">
	.st0{fill:url(#SVGID_1_);}
	.st1{fill:#FFFFFF;stroke:#FFFFFF;stroke-miterlimit:10;}
</style>
<linearGradient id="SVGID_1_" gradientUnits="userSpaceOnUse" x1="3.279082e-04" y1="101.6254" x2="203.9996" y2="102.3746">
	<stop  offset="0" style="stop-color:#AA367C"/>
	<stop  offset="1" style="stop-color:#4A2FBD"/>
</linearGradient>
<path class="st0" d="M102,0C45.7,0,0,45.7,0,102c0,56.3,45.7,102,102,102s102-45.7,102-102C204,45.7,158.3,0,102,0z M102,180.6
	c-43.4,0-78.6-35.2-78.6-78.6c0-43.4,35.2-78.6,78.6-78.6s78.6,35.2,78.6,78.6C180.6,145.4,145.4,180.6,102,180.6z"/>
<g>
	<path class="st1" d="M76.2,101.4l1.1,0.7c-0.4,0.6-0.9,1-1.7,1.3s-1.7,0.4-2.7,0.4c-1.7,0-3.1-0.3-4.4-1c-1.3-0.7-2.2-1.6-2.9-2.8
		s-1-2.6-1-4.2v0c0-1.8,0.4-3.3,1.1-4.5c0.8-1.3,1.9-2.2,3.3-2.9c1.4-0.7,3.2-1,5.2-1c2,0,3.8,0.3,5.2,1c1.4,0.7,2.5,1.6,3.3,2.9
		c0.8,1.3,1.1,2.8,1.1,4.6v0c0,0.9-0.2,1.9-0.5,3c-0.3,1.1-0.8,2.2-1.3,3.4c-0.1,0.2-0.2,0.4-0.2,0.5c-0.1,0.2-0.2,0.3-0.3,0.5
		L75.6,115H69L76.2,101.4z M76.7,98.1c0.6-0.6,0.9-1.4,0.9-2.5v0c0-1-0.3-1.8-0.9-2.4c-0.6-0.6-1.4-0.8-2.5-0.8
		c-1.1,0-2,0.3-2.5,0.8c-0.6,0.6-0.9,1.4-0.9,2.4v0c0,1.1,0.3,1.9,0.9,2.5s1.4,0.9,2.5,0.9C75.2,99,76.1,98.7,76.7,98.1z"/>
	<path class="st1" d="M93.9,114.3c-1.4-0.6-2.5-1.6-3.4-2.8c-0.9-1.2-1.3-2.7-1.5-4.4v0h6.2v0c0.1,1,0.5,1.8,1.1,2.3
		c0.6,0.6,1.4,0.8,2.4,0.8c1.1,0,1.9-0.3,2.5-0.9c0.6-0.6,0.9-1.4,0.9-2.5v-2.3c0-1.1-0.3-1.9-0.8-2.5s-1.3-0.9-2.3-0.9
		c-0.9,0-1.6,0.2-2.3,0.6c-0.6,0.4-1.1,0.9-1.3,1.6h-5.8V87.7h17.7v5H95.9v4.8c0.5-0.4,1.1-0.7,1.9-0.9c0.8-0.2,1.6-0.3,2.4-0.3
		c1.7,0,3.2,0.3,4.4,1c1.2,0.7,2.1,1.6,2.8,2.9s1,2.8,1,4.5v2.3c0,1.8-0.4,3.3-1.1,4.5c-0.8,1.3-1.9,2.2-3.3,2.9
		c-1.4,0.7-3.2,1-5.3,1C96.9,115.3,95.3,115,93.9,114.3z"/>
	<path class="st1" d="M114.6,98.1c-1-0.8-1.6-2-1.6-3.5v-2.4c0-1.5,0.5-2.7,1.6-3.5c1-0.8,2.5-1.3,4.4-1.3c1.9,0,3.4,0.4,4.4,1.3
		c1,0.8,1.5,2,1.5,3.6v2.3c0,1.5-0.5,2.7-1.6,3.6c-1,0.8-2.5,1.3-4.4,1.3S115.7,98.9,114.6,98.1z M133.2,87.7h5.6L121.7,115H116
		L133.2,87.7z M119.8,95.2c0.2-0.2,0.3-0.5,0.3-0.8v-2.1c0-0.3-0.1-0.6-0.3-0.8c-0.2-0.2-0.4-0.3-0.8-0.3s-0.6,0.1-0.8,0.3
		c-0.2,0.2-0.3,0.4-0.3,0.8v2c0,0.4,0.1,0.6,0.3,0.8c0.2,0.2,0.4,0.3,0.8,0.3S119.6,95.4,119.8,95.2z M131,114c-1-0.8-1.6-2-1.6-3.5
		v-2.4c0-1.5,0.5-2.7,1.6-3.5c1-0.8,2.5-1.3,4.4-1.3c1.9,0,3.4,0.4,4.4,1.3s1.5,2,1.5,3.6v2.3c0,1.5-0.5,2.7-1.6,3.6
		c-1,0.8-2.5,1.3-4.4,1.3S132.1,114.9,131,114z M136.2,111.1c0.2-0.2,0.3-0.5,0.3-0.8v-2.1c0-0.3-0.1-0.6-0.3-0.8s-0.4-0.3-0.8-0.3
		s-0.6,0.1-0.8,0.3c-0.2,0.2-0.3,0.4-0.3,0.8v2c0,0.4,0.1,0.6,0.3,0.8c0.2,0.2,0.4,0.3,0.8,0.3S136,111.3,136.2,111.1z"/>
</g>
</svg>
