<?xml version="1.0" encoding="utf-8"?>
<!-- Generator: Adobe Illustrator 26.0.0, SVG Export Plug-In . SVG Version: 6.00 Build 0)  -->
<svg version="1.1" id="Capa_1" xmlns="http://www.w3.org/2000/svg" xmlns:xlink="http://www.w3.org/1999/xlink" x="0px" y="0px"
	 viewBox="0 0 45.5 46" style="enable-background:new 0 0 45.5 46;" xml:space="preserve">
<style type="text/css">
	.st0{fill-rule:evenodd;clip-rule:evenodd;fill:#FFFFFF;}
</style>
<path class="st0" d="M28.8,23L44.2,7.9c1.8-1.8,1.8-4.7,0-6.5c-1.8-1.8-4.8-1.8-6.6,0L22.8,15.9L8,1.3c-1.8-1.8-4.8-1.8-6.6,0
	c-1.8,1.8-1.8,4.7,0,6.5L16.7,23L1.4,38.1c-1.8,1.8-1.8,4.7,0,6.5c1.8,1.8,4.8,1.8,6.6,0l14.8-14.6l14.8,14.6c1.8,1.8,4.8,1.8,6.6,0
	c1.8-1.8,1.8-4.7,0-6.5L28.8,23z"/>
</svg>
